<?xml version="1.0" encoding="UTF-8" standalone="no"?>
<svg width="87px" height="87px" viewBox="0 0 87 87" version="1.1" xmlns="http://www.w3.org/2000/svg" xmlns:xlink="http://www.w3.org/1999/xlink" xmlns:sketch="http://www.bohemiancoding.com/sketch/ns">
    <title>Slice 1</title>
    <description>Created with Sketch (http://www.bohemiancoding.com/sketch)</description>
    <defs></defs>
    <g id="Page-1" stroke="none" stroke-width="1" fill="none" fill-rule="evenodd" sketch:type="MSPage">
        <path d="M43.5,86 C66.972103,86 86,66.972103 86,43.5 C86,20.027897 66.972103,1 43.5,1 C20.027897,1 1,20.027897 1,43.5 C1,66.972103 20.027897,86 43.5,86 Z" id="Oval-5" opacity="0.197869" fill="#FFFFFF" sketch:type="MSShapeGroup"></path>
        <path d="M43.5,86 C66.972103,86 86,66.972103 86,43.5 C86,20.027897 66.972103,1 43.5,1 C20.027897,1 1,20.027897 1,43.5 C1,66.972103 20.027897,86 43.5,86 Z" id="Oval-5" stroke="#FFFFFF" sketch:type="MSShapeGroup"></path>
        <g id="noun_33914_cc" sketch:type="MSLayerGroup" transform="translate(13.000000, 14.000000)" fill="#FFFFFF">
            <g id="Group" sketch:type="MSShapeGroup">
                <path d="M48.984,35.973 C44.954,35.973 41.425,38.606 39.485,42.543 C38.256,41.596 36.801,41.045 35.243,41.045 C33.416,41.045 31.732,41.799 30.388,43.065 C28.649,40.327 25.934,38.561 22.881,38.561 C21.704,38.561 20.576,38.825 19.536,39.305 C18.945,38.336 17.883,37.688 16.665,37.688 C14.806,37.688 13.298,39.194 13.298,41.053 C13.298,42.258 13.936,43.313 14.889,43.908 C14.564,44.525 14.286,45.183 14.06,45.873 C13.797,46.047 13.547,46.244 13.313,46.467 C12.114,44.576 10.238,43.358 8.131,43.358 C4.511,43.358 1.573,46.948 1.573,51.376 C1.573,52.855 2.552,54.048 3.76,54.048 L12.501,54.048 C12.589,54.048 12.675,54.04 12.76,54.028 C12.836,54.04 12.914,54.048 12.994,54.048 L16.55,54.048 L20.333,54.048 L29.213,54.048 C29.341,54.048 29.464,54.036 29.587,54.021 C29.698,54.037 29.813,54.048 29.928,54.048 L40.56,54.048 C40.723,54.048 40.885,54.028 41.041,53.993 C41.224,54.026 41.406,54.048 41.595,54.048 L56.374,54.048 C58.416,54.048 60.071,52.027 60.071,49.53 C60.071,42.045 55.104,35.973 48.984,35.973 L48.984,35.973 Z" id="Shape"></path>
                <circle id="Oval" cx="48.778" cy="27.778" r="6.778"></circle>
                <circle id="Oval" cx="22.808" cy="31.808" r="5.808"></circle>
                <circle id="Oval" cx="34.875" cy="34.875" r="4.875"></circle>
                <circle id="Oval" cx="8.008" cy="39.008" r="4.008"></circle>
                <path d="M6.875,25.045 L6.875,32.045 C7.282,31.965 7.701,31.921 8.13,31.921 C10.736,31.921 12.984,33.465 14.022,35.684 C14.469,35.457 14.946,35.283 15.449,35.177 C14.894,34.064 14.574,32.814 14.574,31.488 C14.574,29.843 15.061,28.312 15.889,27.021 L15.889,21.44 L21.69,21.44 L21.69,23.276 C22.08,23.22 22.475,23.181 22.88,23.181 C24.422,23.181 25.862,23.609 27.099,24.344 L27.099,21.44 L30,21.44 L32.9,21.44 L32.9,28.095 C33.636,27.845 34.423,27.709 35.243,27.709 C36.337,27.709 37.375,27.95 38.309,28.38 L38.309,21.44 L42.195,21.44 C43.89,19.615 46.302,18.464 48.984,18.464 C53.057,18.464 56.518,21.106 57.762,24.764 C58.737,24.363 59.517,23.553 59.841,22.498 C60.305,20.984 59.727,19.344 58.415,18.455 L45.22,9.516 L32.023,0.577 C31.412,0.163 30.707,-0.046 30.001,-0.046 C29.295,-0.046 28.589,0.163 27.978,0.577 L14.783,9.516 L1.586,18.455 C0.274,19.344 -0.304,20.984 0.16,22.498 C0.625,24.014 2.024,25.045 3.607,25.045 L6.875,25.045 L6.875,25.045 Z" id="Shape"></path>
            </g>
        </g>
    </g>
</svg>